<?xml version="1.0" encoding="UTF-8" standalone="no"?>
<!DOCTYPE svg PUBLIC "-//W3C//DTD SVG 1.1//EN" "http://www.w3.org/Graphics/SVG/1.1/DTD/svg11.dtd">
<svg xmlns="http://www.w3.org/2000/svg" xmlns:xlink="http://www.w3.org/1999/xlink" version="1.1" width="60.362pt" height="60.362pt" viewBox="0 0 85 60">
<g enable-background="new">
<g clip-path="url(#cp0)">
<path transform="matrix(1,0,0,-1,46.3032,29.7365)" d="M 0 0 C .283 .016 .586 .035 .778 -.019 C .918 -.028 .982 -.132 .979 -.234 C .975 -.487 .649 -.621 .397 -.703 C .438 -.824 .466 -.956 .478 -1.094 C .528 -1.687 .279 -2.22 -.1 -2.305 C -.112 -2.309 -.126 -2.313 -.141 -2.314 C -.606 -2.392 -1.148 -2.43 -1.708 -2.42 C -1.748 -2.432 -1.791 -2.432 -1.831 -2.418 C -2.701 -2.393 -3.602 -2.25 -4.314 -1.958 C -4.328 -1.972 -4.334 -1.98 -4.334 -1.98 C -4.514 -2.196 -4.837 -1.926 -4.658 -1.71 C -4.653 -1.705 -4.609 -1.652 -4.523 -1.57 C -4.511 -1.555 -4.497 -1.542 -4.481 -1.531 C -4.017 -1.098 -2.613 -.035 0 0 M -1.763 -.632 C -1.816 -1.224 -1.757 -1.644 -1.618 -2.008 C -1.349 -2.01 -1.065 -2 -.769 -1.972 C -.906 -1.78 -1.002 -1.521 -1.027 -1.234 C -1.051 -.956 -1.005 -.692 -.911 -.484 C -1.196 -.517 -1.482 -.567 -1.763 -.632 M -2.069 -1.991 C -2.18 -1.635 -2.224 -1.238 -2.193 -.747 C -2.834 -.94 -3.438 -1.229 -3.956 -1.635 C -3.761 -1.7 -3.482 -1.781 -3.136 -1.851 C -2.83 -1.912 -2.471 -1.965 -2.069 -1.991 M 4.149 -6.727 C 4.154 -6.727 4.159 -6.728 4.164 -6.728 L 4.157 -6.729 Z M -12.092 -13.25 C -12.743 -13.25 -13.27 -12.724 -13.27 -12.072 C -13.27 -11.421 -12.743 -10.895 -12.092 -10.895 C -11.442 -10.895 -10.915 -11.421 -10.915 -12.072 C -10.915 -12.724 -11.442 -13.25 -12.092 -13.25 M -12.092 -12.83 C -11.674 -12.83 -11.335 -12.491 -11.335 -12.072 C -11.335 -11.654 -11.674 -11.315 -12.092 -11.315 C -12.51 -11.315 -12.849 -11.654 -12.849 -12.072 C -12.849 -12.491 -12.51 -12.83 -12.092 -12.83 M -17.229 10.71 C -17.229 10.476 -17.418 10.285 -17.653 10.285 C -17.887 10.285 -18.077 10.476 -18.077 10.71 C -18.077 10.945 -17.887 11.134 -17.653 11.134 C -17.418 11.134 -17.229 10.945 -17.229 10.71 M -5.203 6.926 C -5.203 6.734 -5.358 6.579 -5.55 6.579 C -5.742 6.579 -5.897 6.734 -5.897 6.926 C -5.897 7.117 -5.742 7.272 -5.55 7.272 C -5.358 7.272 -5.203 7.117 -5.203 6.926 M -2.975 9.628 C -2.975 9.387 -3.171 9.19 -3.413 9.19 C -3.655 9.19 -3.852 9.387 -3.852 9.628 C -3.852 9.871 -3.655 10.067 -3.413 10.067 C -3.171 10.067 -2.975 9.871 -2.975 9.628 M -4.107 8.327 C -4.107 8.11 -4.283 7.935 -4.5 7.935 C -4.717 7.935 -4.893 8.11 -4.893 8.327 C -4.893 8.544 -4.717 8.72 -4.5 8.72 C -4.283 8.72 -4.107 8.544 -4.107 8.327 M -11.415 -6.768 L -11.362 -6.374 C -11.522 -6.381 -11.684 -6.382 -11.846 -6.376 C -12.138 -6.761 -12.434 -7.142 -12.735 -7.516 C -12.722 -7.843 -12.683 -8.152 -12.626 -8.443 C -11.733 -7.7 -10.035 -8.195 -10.561 -9.951 C -10.29 -10.147 -10.057 -10.395 -9.878 -10.679 C -8.947 -9.364 -9.743 -7.237 -11.564 -7.18 C -11.844 -7.17 -11.832 -6.75 -11.551 -6.758 C -11.505 -6.761 -11.459 -6.763 -11.415 -6.768 M -10.999 -6.833 C -9.125 -7.286 -8.485 -9.692 -9.666 -11.091 C -9.543 -11.396 -9.476 -11.726 -9.476 -12.072 C -9.476 -12.78 -9.756 -13.421 -10.212 -13.893 C -6.543 -16.107 -2.444 -16.529 .265 -15.957 C 3.097 -15.358 4.114 -13.846 2.327 -12.204 C 2.018 -11.917 2.863 -11.141 3.484 -11.068 C 3.555 -10.662 3.387 -10.375 3.059 -10.208 C 2.177 -10.125 .767 -10.588 -.166 -10.798 C -.22 -10.981 -.491 -11.028 -.562 -10.805 C -.659 -10.501 -.407 -10.037 -.341 -9.896 C -.213 -9.622 .134 -9.803 .014 -10.043 C -.03 -10.13 -.076 -10.244 -.111 -10.354 C .856 -10.125 2.14 -9.714 3.058 -9.785 C 3.285 -9.618 3.889 -9.167 3.76 -8.866 C 3.725 -8.783 3.657 -8.684 3.549 -8.539 C 3.097 -7.941 3.289 -7.522 3.706 -7.075 C 2.986 -6.983 2.073 -7.076 1.588 -7.615 C 1.309 -7.926 .81 -7.099 .757 -6.978 C .557 -6.52 .589 -5.912 1.287 -5.267 C 1.493 -5.075 1.779 -5.385 1.573 -5.574 C 1.016 -6.089 .874 -6.647 1.398 -7.172 L 1.422 -7.196 C 2.175 -6.578 3.228 -6.511 4.149 -6.727 L 4.157 -6.729 L 4.164 -6.728 C 5.758 -6.623 5.631 -5.98 5.218 -4.811 C 5.054 -4.35 4.833 -3.813 4.6 -3.199 C 4.258 -2.303 3.625 -.477 2.947 1.508 C 1.131 2.222 -1.451 1.804 -3.436 .921 C -3.925 .152 -4.644 -.569 -5.646 -1.243 C -6.134 -3.956 -8.355 -6.014 -10.932 -6.335 Z M -12.507 -8.938 C -12.454 -9.126 -12.394 -9.304 -12.33 -9.468 C -12.252 -9.46 -12.172 -9.457 -12.092 -9.457 C -11.677 -9.457 -11.284 -9.554 -10.935 -9.726 C -10.671 -8.598 -11.783 -8.106 -12.507 -8.938 M -12.492 -14.658 C -12.471 -16.085 -12.986 -18.431 -14.724 -20.308 C -12.103 -20.969 -6.456 -22.75 -4.38 -23.488 C -4.099 -23.431 -3.817 -23.366 -3.536 -23.296 C -3.896 -21.638 -3.862 -19.205 -3.038 -16.578 C -5.391 -16.427 -8.069 -15.705 -10.545 -14.183 C -10.978 -14.5 -11.513 -14.689 -12.092 -14.689 C -12.228 -14.689 -12.362 -14.679 -12.492 -14.658 M -15.068 -20.656 C -15.337 -20.914 -15.633 -21.161 -15.956 -21.393 C -13.6 -21.906 -9.417 -23.279 -7.945 -23.956 C -7.045 -23.904 -6.131 -23.803 -5.211 -23.646 C -7.731 -22.788 -12.813 -21.201 -15.068 -20.656 M -16.451 -21.721 C -16.863 -21.974 -17.314 -22.203 -17.809 -22.402 C -15.387 -23.423 -12.27 -24.052 -8.932 -23.996 C -10.899 -23.232 -14.558 -22.079 -16.451 -21.721 M -18.357 -22.159 C -17.715 -21.934 -17.144 -21.655 -16.637 -21.339 C -16.619 -21.322 -16.598 -21.31 -16.573 -21.299 C -16.092 -20.994 -15.668 -20.654 -15.297 -20.291 C -15.286 -20.275 -15.271 -20.261 -15.254 -20.249 C -13.374 -18.38 -12.864 -15.941 -12.916 -14.557 C -13.349 -14.413 -13.732 -14.16 -14.032 -13.829 C -13.806 -16.273 -14.587 -19.222 -18.142 -20.997 C -18.197 -21.027 -18.212 -21.032 -18.24 -21.035 C -18.262 -21.037 -18.308 -21.036 -18.366 -21.016 C -18.97 -20.823 -19.589 -20.506 -20.137 -20.104 C -20.206 -20.058 -20.206 -20.056 -20.267 -20.005 C -20.755 -19.627 -21.18 -19.182 -21.476 -18.697 C -21.511 -18.642 -21.509 -18.646 -21.531 -18.604 C -22.233 -17.378 -22.101 -15.93 -20.118 -14.741 C -20.216 -14.424 -20.344 -14.125 -20.496 -13.833 C -24.541 -16.599 -22.938 -20.024 -18.357 -22.159 M -12.675 -14.189 C -12.661 -14.192 -12.646 -14.196 -12.633 -14.201 C -12.459 -14.245 -12.279 -14.268 -12.092 -14.268 C -11.563 -14.268 -11.079 -14.081 -10.7 -13.771 C -10.692 -13.764 -10.684 -13.756 -10.676 -13.75 C -10.2 -13.348 -9.897 -12.746 -9.897 -12.072 C -9.897 -11.748 -9.968 -11.438 -10.095 -11.161 C -10.104 -11.146 -10.112 -11.128 -10.118 -11.111 C -10.474 -10.38 -11.224 -9.877 -12.092 -9.877 C -12.202 -9.877 -12.31 -9.886 -12.415 -9.901 L -12.459 -9.908 C -12.86 -9.977 -13.224 -10.152 -13.52 -10.405 L -13.55 -10.432 C -14.003 -10.833 -14.288 -11.419 -14.288 -12.072 C -14.288 -13.083 -13.604 -13.935 -12.675 -14.189 M -20.246 -13.412 C -20.239 -13.422 -20.233 -13.434 -20.228 -13.443 C -20.185 -13.521 -20.143 -13.599 -20.102 -13.677 C -19.276 -13.193 -18.492 -12.646 -17.743 -12.048 C -17.733 -12.04 -17.723 -12.031 -17.712 -12.024 C -17.36 -11.742 -17.015 -11.448 -16.678 -11.145 C -16.664 -11.126 -16.646 -11.111 -16.628 -11.1 C -16.286 -10.789 -15.951 -10.47 -15.624 -10.141 C -15.611 -10.125 -15.597 -10.11 -15.582 -10.098 C -15.143 -9.656 -14.716 -9.198 -14.3 -8.727 C -14.285 -8.697 -14.264 -8.673 -14.238 -8.656 C -13.864 -8.231 -13.499 -7.794 -13.139 -7.351 C -13.126 -7.319 -13.105 -7.294 -13.081 -7.276 C -12.76 -6.878 -12.446 -6.475 -12.136 -6.064 C -12.108 -6.027 -12.111 -6.038 -12.084 -5.997 C -11.737 -5.537 -11.396 -5.07 -11.058 -4.6 C -11.047 -4.575 -11.031 -4.552 -11.009 -4.532 C -9.772 -2.804 -8.591 -1.022 -7.405 .701 C -7.396 .721 -7.383 .739 -7.368 .755 C -7.03 1.245 -6.691 1.73 -6.351 2.208 C -6.341 2.23 -6.327 2.25 -6.31 2.265 C -5.725 3.086 -5.132 3.886 -4.526 4.651 C -4.469 4.723 -4.412 4.795 -4.354 4.867 C -4.342 4.891 -4.326 4.911 -4.306 4.927 C -3.952 5.367 -3.592 5.794 -3.226 6.206 C -3.214 6.225 -3.199 6.241 -3.183 6.255 C -2.528 6.989 -1.853 7.675 -1.148 8.297 C -1.134 8.314 -1.117 8.329 -1.098 8.341 C -.655 8.729 -.2 9.092 .268 9.425 C .284 9.441 .303 9.455 .324 9.465 L .391 9.512 C .402 9.521 .414 9.529 .426 9.536 C .492 9.582 .558 9.626 .624 9.671 L .218 10.861 C -.011 10.684 -.236 10.504 -.458 10.321 C -.469 10.309 -.481 10.299 -.495 10.29 C -8.425 3.704 -11.815 -6.985 -20.589 -12.861 C -20.468 -13.042 -20.353 -13.226 -20.246 -13.412 M -11.157 -5.937 C -11.148 -5.936 -11.14 -5.936 -11.131 -5.936 C -8.66 -5.694 -6.496 -3.729 -6.052 -1.114 C -6.052 -1.092 -6.049 -1.07 -6.042 -1.049 C -5.958 -.526 -5.945 .023 -6.011 .587 C -6.017 .609 -6.02 .631 -6.019 .653 C -6.061 .987 -6.131 1.326 -6.232 1.669 C -6.489 1.304 -6.741 .94 -6.989 .578 C -6.628 -1.281 -7.483 -3.883 -10.734 -4.868 C -10.997 -5.234 -11.262 -5.598 -11.531 -5.958 C -11.406 -5.956 -11.281 -5.948 -11.157 -5.937 M -2.633 3.124 C -.467 4.142 .457 6.466 .252 8.893 C -.091 8.637 -.428 8.364 -.759 8.077 C -.617 6.585 -1.147 5.421 -2.581 4.334 C -2.563 3.92 -2.579 3.517 -2.633 3.124 M -2.618 4.84 C -1.552 5.715 -1.132 6.615 -1.159 7.72 C -1.729 7.197 -2.281 6.633 -2.815 6.04 C -2.726 5.631 -2.659 5.231 -2.618 4.84 M -5.657 1.071 C -4.664 2.083 -4.346 3.17 -4.348 4.214 C -4.893 3.522 -5.418 2.813 -5.926 2.1 C -5.809 1.753 -5.719 1.41 -5.657 1.071 M -10.312 -4.275 C -7.972 -3.346 -7.232 -1.451 -7.344 .059 C -7.876 -.725 -8.39 -1.49 -8.886 -2.218 C -9.355 -2.904 -9.829 -3.593 -10.312 -4.275 M -8.453 7.518 C -8.685 7.84 -8.768 8.314 -8.69 8.688 C -8.65 8.881 -8.461 8.574 -8.425 8.538 C -8.295 8.411 -8.117 8.332 -7.943 8.258 C -7.589 8.766 -7.229 9.269 -6.86 9.764 C -6.445 10.323 -6.021 10.87 -5.586 11.402 C -6.308 12.265 -7.53 11.774 -7.191 10.411 C -7.123 10.138 -7.532 10.037 -7.6 10.309 C -7.675 10.613 -7.69 10.884 -7.659 11.12 C -8.581 11.425 -9.239 10.585 -8.666 9.748 C -8.475 9.928 -8.183 9.65 -8.37 9.448 L -10.01 7.682 C -10.023 7.661 -10.041 7.642 -10.061 7.627 L -11.383 6.203 C -10.807 6.098 -10.225 5.953 -9.626 5.751 C -9.24 6.345 -8.85 6.934 -8.453 7.518 M -10.531 8.968 C -10.846 9.046 -11.155 9.145 -11.286 9.47 C -11.344 9.615 -10.879 9.542 -10.822 9.541 C -10.708 9.539 -10.596 9.566 -10.485 9.6 C -10.46 9.833 -10.428 10.064 -10.396 10.292 C -10.396 10.298 -10.395 10.304 -10.394 10.311 C -10.383 10.386 -10.373 10.46 -10.363 10.535 C -10.325 10.813 -9.91 10.757 -9.945 10.481 C -8.704 10.584 -8.948 12.358 -10.261 12.098 C -10.536 12.042 -10.618 12.456 -10.343 12.51 C -10.045 12.569 -9.786 12.556 -9.568 12.491 C -9.705 14.271 -12.435 13.184 -10.879 11.849 C -10.667 11.667 -10.94 11.347 -11.153 11.53 C -11.426 11.764 -11.602 11.996 -11.7 12.218 C -12.668 12.07 -12.387 10.877 -11.771 10.663 L -11.762 10.698 C -11.695 10.97 -11.286 10.869 -11.353 10.596 L -11.407 10.379 C -11.408 10.37 -11.411 10.36 -11.414 10.351 L -12.4 6.348 C -12.228 6.33 -12.055 6.308 -11.883 6.283 L -10.427 7.852 C -10.518 8.215 -10.542 8.59 -10.531 8.968 M -9.288 10.248 C -9.478 10.134 -9.716 10.063 -10.004 10.056 C -10.086 9.46 -10.16 8.823 -10.073 8.232 L -8.958 9.434 C -9.158 9.7 -9.262 9.98 -9.288 10.248 M -21.116 8.855 C -21.345 8.609 -21.566 8.355 -21.778 8.096 C -21.357 7.512 -20.853 7.129 -20.27 6.88 C -20.346 7.397 -20.351 8.14 -20.202 8.613 Z M -22.587 7.007 C -23.594 5.521 -24.336 3.873 -24.782 2.169 C -24.33 2.437 -23.846 2.643 -23.481 2.73 C -23.608 3.375 -23.579 4.051 -23.314 4.782 C -23.223 5.034 -22.949 5.007 -22.908 4.743 C -22.743 3.671 -21.67 2.833 -20.835 2.183 C -20.636 2.345 -20.423 2.51 -20.196 2.676 C -21.409 3.563 -22.348 4.877 -22.587 7.007 M -24.925 1.577 C -24.98 1.324 -25.03 1.07 -25.072 .816 L -24.159 -.643 C -24.006 -.518 -23.846 -.4 -23.682 -.296 C -24.415 1.222 -24.561 .903 -23.109 1.616 C -23.216 1.848 -23.308 2.083 -23.38 2.322 C -23.771 2.23 -24.398 1.948 -24.925 1.577 M -25.166 .172 C -25.246 -.482 -25.282 -1.138 -25.272 -1.792 C -25.067 -1.525 -24.794 -1.216 -24.48 -.923 Z M -25.246 -2.497 C -25.236 -2.67 -25.224 -2.841 -25.209 -3.008 C -24.814 -2.724 -24.17 -2.286 -23.781 -2.167 C -23.683 -1.657 -23.514 -1.101 -23.19 -.499 C -23.223 -.516 -23.257 -.534 -23.29 -.551 C -23.299 -.558 -23.309 -.563 -23.319 -.568 C -24.225 -1.088 -25.058 -2.134 -25.246 -2.497 M -22.92 1.238 L -23.74 .824 L -23.312 -.09 C -23.154 -.013 -22.993 .048 -22.832 .09 C -22.732 .236 -22.622 .386 -22.501 .537 C -22.652 .769 -22.793 1.002 -22.92 1.238 M -22.712 -6.573 C -22.672 -7.162 -22.617 -7.754 -22.7 -8.335 C -22.026 -8.289 -21.771 -8.091 -21.405 -7.721 C -21.897 -7.413 -22.32 -7.069 -22.712 -6.573 M -21.166 1.907 C -21.898 2.479 -22.684 3.115 -23.092 3.952 C -23.161 3.479 -23.123 3.032 -23.024 2.622 L -23.021 2.607 C -22.851 1.911 -22.507 1.319 -22.219 .874 C -21.925 1.207 -21.577 1.551 -21.166 1.907 M -18.786 -2.119 C -18.841 -2.201 -18.892 -2.286 -18.936 -2.376 C -19.42 -3.337 -18.899 -4.077 -18.318 -4.077 C -17.004 -4.077 -17.082 -2.192 -18.786 -2.119 M -19.036 1.98 C -19.306 2.114 -19.571 2.262 -19.827 2.424 C -20.14 2.199 -20.425 1.979 -20.686 1.762 C -20.695 1.752 -20.706 1.744 -20.717 1.736 C -21.271 1.274 -21.711 .833 -22.061 .415 C -22.07 .4 -22.081 .388 -22.092 .376 C -22.25 .186 -22.389 -.001 -22.512 -.185 C -22.521 -.207 -22.534 -.227 -22.552 -.245 C -23.047 -1 -23.265 -1.677 -23.377 -2.281 C -23.542 -3.176 -23.418 -4.33 -23.937 -5.117 C -23.123 -5.068 -22.896 -4.839 -22.399 -4.34 C -22.896 -2.102 -21.289 .776 -19.036 1.98 M -19.751 8.493 L -19.796 8.505 C -19.942 8.074 -19.924 7.171 -19.811 6.715 C -18.99 6.471 -18.034 6.429 -16.953 6.437 C -16.052 6.442 -15.195 6.464 -14.354 6.453 C -14.656 6.833 -14.822 7.235 -14.897 7.589 C -16.152 7.088 -18.632 7.251 -19.751 8.493 M -16.395 9.208 C -16.958 10.027 -17.091 11.121 -16.388 12.23 C -17.327 11.818 -18.201 11.311 -19.006 10.726 C -18.627 9.959 -17.573 9.031 -16.395 9.208 M -14.902 8.045 C -15.354 8.219 -15.767 8.493 -16.096 8.839 C -17.576 8.461 -18.859 9.565 -19.347 10.47 C -19.855 10.078 -20.334 9.653 -20.782 9.202 L -19.881 8.963 C -19.87 8.961 -19.859 8.958 -19.849 8.955 L -19.62 8.895 C -19.587 8.892 -19.554 8.882 -19.522 8.86 C -19.49 8.841 -19.466 8.816 -19.45 8.788 C -18.381 7.578 -15.856 7.558 -14.902 8.045 M -14.716 11.941 L -14.592 11.854 C -14.578 11.846 -14.564 11.836 -14.551 11.824 L -13.869 11.34 L -14.022 13.027 C -14.571 12.895 -15.103 12.732 -15.617 12.542 C -16.709 11.351 -16.584 10.091 -15.905 9.248 C -15.881 9.229 -15.863 9.207 -15.849 9.181 C -15.31 8.558 -14.46 8.182 -13.589 8.267 L -13.672 9.186 C -13.782 9.159 -13.896 9.145 -14.012 9.145 C -14.82 9.145 -15.476 9.801 -15.476 10.608 C -15.476 11.024 -15.302 11.399 -15.024 11.666 C -15.128 11.838 -14.917 12.083 -14.716 11.941 M -13.151 8.058 C -13.155 8.022 -13.167 7.988 -13.188 7.958 C -13.211 7.927 -13.245 7.901 -13.29 7.887 C -13.3 7.883 -13.312 7.881 -13.324 7.878 C -13.678 7.817 -14.037 7.827 -14.383 7.895 C -14.421 7.86 -14.462 7.828 -14.507 7.795 C -14.448 7.396 -14.243 6.883 -13.77 6.44 C -13.454 6.43 -13.139 6.413 -12.824 6.387 L -11.872 10.251 C -12.907 10.556 -13.192 12.392 -11.798 12.629 C -11.809 12.93 -11.682 13.198 -11.477 13.407 C -12.211 13.362 -12.922 13.265 -13.608 13.121 L -13.412 10.964 C -13.405 10.939 -13.403 10.915 -13.405 10.89 L -13.384 10.661 C -13.359 10.382 -13.778 10.344 -13.804 10.623 L -13.819 10.789 L -14.686 11.404 C -14.912 11.213 -15.055 10.927 -15.055 10.608 C -15.055 10.033 -14.588 9.566 -14.012 9.566 C -13.908 9.566 -13.807 9.582 -13.711 9.61 L -13.718 9.686 C -13.744 9.965 -13.324 10.003 -13.299 9.725 L -13.279 9.509 C -13.276 9.492 -13.274 9.476 -13.275 9.459 L -13.152 8.109 C -13.15 8.088 -13.15 8.073 -13.151 8.058 M -5.516 20.743 L -7.94 15.097 C -7.625 15.039 -7.31 14.97 -6.995 14.891 L -4.616 19.482 C -4.487 19.731 -4.113 19.538 -4.242 19.289 L -6.579 14.779 C -6.167 14.663 -5.756 14.528 -5.347 14.374 L -2.045 19.845 C -3.215 20.239 -4.374 20.536 -5.516 20.743 M -9.51 21.113 L -10.996 15.345 C -10.614 15.353 -10.231 15.347 -9.847 15.325 L -8.425 19.875 C -8.341 20.144 -7.939 20.018 -8.023 19.75 L -9.415 15.295 C -9.066 15.266 -8.717 15.225 -8.367 15.17 L -5.943 20.816 C -7.152 21.013 -8.343 21.109 -9.51 21.113 M -13.51 20.756 L -13.901 15.001 C -13.524 15.083 -13.144 15.151 -12.761 15.204 L -12.066 19.752 C -12.023 20.029 -11.607 19.965 -11.65 19.688 L -12.327 15.258 C -12.031 15.29 -11.733 15.314 -11.434 15.329 L -9.945 21.11 C -11.163 21.09 -12.353 20.969 -13.51 20.756 M -17.444 19.641 L -16.704 14.121 C -16.381 14.255 -16.055 14.379 -15.726 14.493 L -15.876 19.098 C -15.886 19.378 -15.465 19.393 -15.456 19.112 L -15.309 14.629 C -14.986 14.731 -14.659 14.823 -14.33 14.903 L -13.938 20.673 C -15.146 20.426 -16.318 20.078 -17.444 19.641 M -20.946 17.91 L -19.228 12.804 C -18.957 12.976 -18.681 13.14 -18.401 13.296 L -19.418 17.56 C -19.483 17.833 -19.074 17.93 -19.009 17.657 L -18.018 13.503 C -17.718 13.66 -17.414 13.808 -17.105 13.947 L -17.848 19.479 C -18.925 19.036 -19.96 18.51 -20.946 17.91 M -24.166 15.544 L -21.552 11.041 C -21.325 11.245 -21.094 11.442 -20.857 11.635 L -22.58 15.601 C -22.691 15.858 -22.306 16.026 -22.194 15.769 L -20.515 11.904 C -20.215 12.135 -19.907 12.356 -19.593 12.567 L -21.314 17.683 C -22.321 17.043 -23.274 16.327 -24.166 15.544 M -26.88 12.731 L -23.562 8.899 C -23.354 9.163 -23.139 9.418 -22.917 9.668 L -25.376 13.049 C -25.541 13.276 -25.201 13.523 -25.036 13.296 L -22.627 9.985 C -22.382 10.248 -22.129 10.502 -21.869 10.748 L -24.487 15.258 C -25.346 14.475 -26.146 13.63 -26.88 12.731 M -29.114 9.479 L -25.173 6.474 C -25.03 6.735 -24.879 6.993 -24.723 7.246 L -27.617 10.021 C -27.819 10.215 -27.528 10.519 -27.325 10.324 L -24.493 7.608 C -24.281 7.934 -24.058 8.25 -23.825 8.56 L -27.148 12.398 C -27.875 11.474 -28.533 10.498 -29.114 9.479 M -30.748 5.974 L -26.358 3.782 C -26.251 4.098 -26.135 4.409 -26.01 4.717 L -29.365 6.773 C -29.604 6.92 -29.384 7.279 -29.145 7.132 L -25.844 5.109 C -25.697 5.444 -25.541 5.774 -25.374 6.097 L -29.322 9.107 C -29.873 8.1 -30.351 7.052 -30.748 5.974 M -31.807 2.042 L -27.031 1.059 C -26.98 1.385 -26.918 1.707 -26.848 2.026 L -30.507 3.178 C -30.774 3.262 -30.648 3.664 -30.38 3.579 L -26.752 2.437 C -26.674 2.754 -26.586 3.067 -26.49 3.377 L -30.891 5.574 C -31.29 4.426 -31.598 3.246 -31.807 2.042 M -32.129 -1.93 L -27.227 -2.028 C -27.237 -1.693 -27.237 -1.36 -27.227 -1.031 L -31.021 -.611 C -31.3 -.581 -31.254 -.163 -30.975 -.193 L -27.209 -.609 C -27.186 -.187 -27.146 .229 -27.092 .643 L -31.876 1.627 C -32.057 .457 -32.144 -.732 -32.129 -1.93 M -31.674 -6.057 L -26.866 -5.029 C -26.938 -4.687 -26.999 -4.347 -27.049 -4.007 L -30.878 -4.366 C -31.158 -4.393 -31.197 -3.974 -30.918 -3.947 L -27.106 -3.59 C -27.154 -3.207 -27.187 -2.827 -27.208 -2.449 L -32.121 -2.351 C -32.082 -3.582 -31.936 -4.821 -31.674 -6.057 M -30.451 -9.948 L -26.016 -7.885 C -26.128 -7.595 -26.232 -7.306 -26.328 -7.017 L -29.95 -8.08 C -30.219 -8.159 -30.338 -7.754 -30.069 -7.676 L -26.456 -6.615 C -26.577 -6.223 -26.683 -5.831 -26.774 -5.441 L -31.583 -6.466 C -31.312 -7.635 -30.937 -8.797 -30.451 -9.948 M -24.583 -10.852 L -28.414 -13.715 C -27.773 -14.676 -27.043 -15.618 -26.221 -16.535 L -23.215 -12.935 C -23.414 -12.663 -23.605 -12.392 -23.788 -12.119 L -26.655 -14.955 C -26.854 -15.152 -27.151 -14.854 -26.951 -14.655 L -24.024 -11.761 C -24.22 -11.458 -24.406 -11.154 -24.583 -10.852 M -28.645 -13.363 L -24.792 -10.483 C -24.976 -10.154 -25.149 -9.824 -25.311 -9.494 L -28.531 -11.458 C -28.771 -11.604 -28.989 -11.245 -28.75 -11.099 L -25.493 -9.112 C -25.623 -8.833 -25.745 -8.555 -25.859 -8.277 L -30.283 -10.333 C -29.827 -11.357 -29.283 -12.369 -28.645 -13.363 M -5.315 11.73 C -5.113 11.972 -4.909 12.211 -4.701 12.446 C -5.811 12.814 -6.887 13.073 -7.927 13.234 C -7.945 13.234 -7.962 13.237 -7.979 13.242 C -8.463 13.315 -8.941 13.367 -9.41 13.399 C -9.228 13.142 -9.121 12.771 -9.143 12.261 C -8.895 12.05 -8.752 11.746 -8.721 11.431 C -8.415 11.62 -8.006 11.678 -7.545 11.527 C -7.165 12.375 -6.029 12.505 -5.315 11.73 M -10.436 4.496 C -10.246 4.793 -10.055 5.09 -9.864 5.386 C -10.521 5.602 -11.163 5.748 -11.797 5.846 C -11.819 5.846 -11.841 5.849 -11.861 5.855 C -13.528 6.104 -15.158 6.028 -16.95 6.016 C -18.062 6.007 -19.102 6.048 -20.015 6.338 C -20.04 6.341 -20.064 6.349 -20.086 6.361 C -20.839 6.612 -21.503 7.038 -22.048 7.753 C -22.103 7.682 -22.157 7.611 -22.21 7.539 C -22.19 7.19 -22.154 6.864 -22.101 6.558 C -21.033 5.161 -18.976 4.96 -16.671 4.967 C -14.852 4.971 -12.172 5.203 -10.436 4.496 M -11.217 3.271 C -11.034 3.559 -10.851 3.847 -10.667 4.135 C -12.318 4.769 -14.972 4.55 -16.67 4.546 C -18.644 4.54 -20.631 4.673 -21.913 5.754 C -21.717 5.106 -21.436 4.565 -21.084 4.106 C -19.194 3.295 -15.556 3.715 -13.328 3.605 C -12.541 3.566 -11.811 3.475 -11.217 3.271 M -12.099 1.885 C -11.882 2.225 -11.666 2.564 -11.45 2.904 C -12.738 3.306 -14.821 3.211 -16.088 3.192 C -17.636 3.168 -19.247 3.156 -20.505 3.473 C -19.852 2.871 -19.047 2.436 -18.152 2.066 C -17.52 1.96 -15.939 2.056 -15.398 2.071 C -14.216 2.103 -12.92 2.11 -12.099 1.885 M -13.254 .096 C -12.947 .566 -12.641 1.038 -12.338 1.512 C -13.498 1.781 -15.606 1.635 -16.919 1.606 C -16.462 1.449 -15.991 1.297 -15.512 1.138 C -14.807 .904 -14.135 .655 -13.586 .32 C -13.563 .311 -13.542 .298 -13.525 .282 C -13.431 .223 -13.34 .161 -13.254 .096 M -14.391 -1.602 C -14.086 -1.157 -13.785 -.708 -13.486 -.257 C -13.561 -.199 -13.638 -.145 -13.72 -.092 C -14.149 -.128 -14.691 -.192 -15.266 -.305 C -14.889 -.691 -14.564 -1.183 -14.391 -1.602 M -15.559 -3.252 C -15.265 -2.853 -14.977 -2.446 -14.692 -2.038 C -14.774 -1.625 -15.223 -.877 -15.764 -.415 C -16.173 -.515 -16.587 -.641 -16.979 -.801 C -15.953 -1.391 -15.587 -2.339 -15.559 -3.252 M -16.94 -5.06 C -16.625 -4.666 -16.315 -4.268 -16.012 -3.864 C -15.867 -2.802 -16.141 -1.617 -17.467 -1.024 C -17.844 -1.218 -18.185 -1.451 -18.462 -1.729 C -16.51 -2.042 -16.55 -4.498 -18.318 -4.498 C -19.783 -4.498 -19.707 -2.684 -19.072 -1.799 C -19.063 -1.782 -19.052 -1.768 -19.039 -1.754 L -19.034 -1.747 C -18.72 -1.343 -18.252 -.954 -17.599 -.622 C -17.578 -.605 -17.554 -.593 -17.527 -.586 C -17.051 -.352 -16.479 -.146 -15.801 .015 C -15.777 .025 -15.75 .032 -15.723 .033 C -15.315 .127 -14.87 .204 -14.385 .263 C -14.762 .434 -15.187 .586 -15.645 .738 C -15.943 .837 -16.25 .934 -16.563 1.035 C -23.2 -1.109 -20.534 -6.96 -16.94 -5.06 M -18.444 -6.827 C -18.121 -6.47 -17.806 -6.106 -17.497 -5.737 C -21.098 -6.761 -23.375 -1.081 -17.22 1.25 C -17.664 1.4 -18.11 1.563 -18.545 1.753 C -22.545 -.038 -23.879 -6.123 -18.444 -6.827 M -19.713 -8.157 C -19.398 -7.846 -19.09 -7.526 -18.789 -7.202 C -20.751 -6.881 -21.833 -5.957 -22.265 -4.796 C -22.535 -5.056 -22.748 -5.23 -22.993 -5.345 C -22.93 -5.465 -22.868 -5.578 -22.805 -5.686 C -22.78 -5.708 -22.76 -5.739 -22.75 -5.776 C -21.958 -7.077 -21.074 -7.456 -19.713 -8.157 M -19.552 -8.581 C -20.362 -9.376 -21.215 -10.13 -22.122 -10.83 L -22.062 -10.909 C -21.922 -11.091 -21.782 -11.27 -21.644 -11.446 C -17.406 -8.801 -14.309 -4.197 -11.23 .674 C -8.563 4.897 -5.762 9.62 -2.125 13.177 C -2.11 13.199 -2.092 13.216 -2.072 13.229 C -1.704 13.587 -1.328 13.934 -.942 14.265 L -1.264 15.211 C -2.669 14.061 -3.947 12.728 -5.132 11.296 C -5.144 11.275 -5.159 11.256 -5.177 11.241 C -7.458 8.474 -9.398 5.339 -11.259 2.423 C -12.239 .888 -13.233 -.656 -14.28 -2.162 C -14.29 -2.185 -14.304 -2.204 -14.321 -2.221 C -14.745 -2.829 -15.177 -3.431 -15.622 -4.022 C -15.632 -4.043 -15.646 -4.062 -15.662 -4.076 C -15.983 -4.503 -16.31 -4.926 -16.644 -5.34 C -16.654 -5.36 -16.668 -5.376 -16.686 -5.394 C -17.174 -5.999 -17.677 -6.591 -18.198 -7.166 C -18.21 -7.187 -18.227 -7.204 -18.246 -7.219 C -18.659 -7.674 -19.084 -8.119 -19.522 -8.551 Z M -.795 13.835 C -1.121 13.55 -1.439 13.256 -1.751 12.952 L -1.986 10.967 L -.666 10.694 C -.423 10.894 -.176 11.09 .075 11.282 L -.101 11.798 C -.479 11.669 -.89 11.871 -1.019 12.249 C -1.147 12.627 -.945 13.038 -.567 13.167 Z M -20.829 -12.516 C -12.219 -6.753 -8.781 3.737 -1.079 10.348 L -2.217 10.576 C -2.441 10.626 -2.441 10.621 -2.417 10.875 L -2.231 12.475 C -9.347 5.207 -13.319 -6.719 -21.383 -11.779 C -21.192 -12.026 -21.005 -12.27 -20.829 -12.516 M -22.877 -9.789 C -22.859 -9.808 -22.844 -9.828 -22.834 -9.853 C -22.682 -10.074 -22.529 -10.288 -22.375 -10.494 C -21.549 -9.856 -20.771 -9.18 -20.031 -8.466 C -20.396 -8.279 -20.727 -8.111 -21.033 -7.94 C -21.602 -8.515 -21.991 -8.775 -22.964 -8.764 C -23.123 -8.762 -23.209 -8.642 -23.162 -8.49 C -22.987 -7.933 -23.151 -6.601 -23.163 -5.909 C -23.242 -5.774 -23.32 -5.63 -23.397 -5.478 C -23.657 -5.531 -23.973 -5.549 -24.404 -5.549 C -24.645 -5.549 -24.724 -5.346 -24.546 -5.185 C -23.895 -4.589 -23.993 -3.739 -23.855 -2.645 C -24.228 -2.841 -24.902 -3.311 -25.162 -3.497 C -24.841 -6.373 -23.9 -8.279 -22.877 -9.789 M -23.666 -11.539 C -23.667 -11.044 -23.507 -10.545 -23.27 -9.959 C -24.315 -8.401 -25.275 -6.418 -25.591 -3.445 C -25.596 -3.424 -25.599 -3.403 -25.598 -3.381 C -25.627 -3.1 -25.65 -2.809 -25.667 -2.508 C -25.672 -2.485 -25.674 -2.462 -25.671 -2.438 C -25.676 -2.338 -25.681 -2.237 -25.684 -2.134 C -25.721 -1.172 -25.66 -.2 -25.506 .765 C -25.507 .793 -25.502 .82 -25.493 .844 C -25.445 1.132 -25.39 1.419 -25.326 1.705 C -25.327 1.734 -25.32 1.763 -25.307 1.791 C -24.684 4.512 -23.327 7.121 -21.355 9.213 C -21.342 9.234 -21.325 9.251 -21.305 9.266 C -20.724 9.878 -20.089 10.444 -19.405 10.956 L -19.392 10.965 C -18.32 11.765 -17.127 12.428 -15.824 12.917 C -15.81 12.925 -15.796 12.93 -15.781 12.934 C -14.185 13.528 -12.423 13.86 -10.519 13.86 C -10.407 13.872 -10.295 13.871 -10.187 13.857 C -9.484 13.842 -8.762 13.783 -8.022 13.675 C -7.693 14.098 -7.287 14.32 -6.793 14.402 C -6.836 14.414 -6.879 14.425 -6.922 14.437 C -6.93 14.438 -6.938 14.44 -6.946 14.442 C -7.863 14.684 -8.783 14.832 -9.697 14.894 L -9.711 14.894 C -14.564 15.211 -19.248 13.078 -22.482 9.521 L -22.492 9.511 C -23.146 8.791 -23.74 8.014 -24.264 7.186 C -24.27 7.175 -24.276 7.166 -24.283 7.156 C -24.768 6.388 -25.192 5.578 -25.548 4.732 C -25.549 4.727 -25.552 4.722 -25.554 4.716 C -25.903 3.885 -26.186 3.019 -26.394 2.125 C -27.197 -1.329 -26.896 -5.192 -25.032 -9.103 L -25.029 -9.108 C -24.643 -9.917 -24.19 -10.729 -23.666 -11.539 M -13.602 -9.936 C -13.349 -9.756 -13.062 -9.621 -12.752 -9.541 C -12.917 -9.1 -13.056 -8.574 -13.121 -7.989 C -13.373 -8.293 -13.628 -8.596 -13.888 -8.892 C -13.833 -9.235 -13.751 -9.593 -13.602 -9.936 M -14.617 -11.382 C -14.495 -10.935 -14.257 -10.535 -13.937 -10.216 C -14.084 -9.908 -14.178 -9.591 -14.242 -9.29 C -14.548 -9.628 -14.86 -9.961 -15.179 -10.286 C -14.988 -10.571 -14.792 -10.944 -14.617 -11.382 M -3.782 1.163 C -3.773 1.186 -3.76 1.208 -3.741 1.229 C -3.436 1.728 -3.234 2.25 -3.118 2.794 C -3.117 2.817 -3.112 2.84 -3.104 2.862 C -3.005 3.354 -2.977 3.863 -3.004 4.394 C -3.01 4.417 -3.012 4.441 -3.008 4.465 C -3.033 4.848 -3.086 5.242 -3.164 5.646 C -3.43 5.341 -3.691 5.029 -3.949 4.712 C -3.832 3.356 -4.15 1.877 -5.583 .557 C -5.539 .136 -5.536 -.276 -5.571 -.677 C -4.775 -.097 -4.19 .515 -3.782 1.163 M -3.108 1.514 C -1.263 2.23 1.005 2.57 2.775 2.016 C 1.981 4.349 1.159 6.811 .7 8.188 C .683 5.812 -.396 3.57 -2.724 2.625 C -2.811 2.245 -2.938 1.875 -3.108 1.514 M -19.619 -19.978 C -19.211 -20.232 -18.759 -20.445 -18.286 -20.599 C -13.003 -17.926 -14.275 -12.472 -15.482 -10.59 C -15.732 -10.837 -15.987 -11.08 -16.245 -11.317 C -14.429 -14.705 -15.266 -18.573 -19.619 -19.978 M -20.964 -18.742 C -20.729 -19.077 -20.419 -19.392 -20.059 -19.67 C -15.769 -18.455 -14.875 -14.859 -16.568 -11.607 C -16.814 -11.826 -17.065 -12.04 -17.32 -12.247 C -15.522 -15.357 -17.869 -18.533 -20.964 -18.742 M -21.447 -17.533 C -21.418 -17.805 -21.335 -18.071 -21.208 -18.33 C -18.269 -18.279 -16.066 -15.352 -17.653 -12.513 C -17.952 -12.747 -18.256 -12.974 -18.567 -13.19 C -17.976 -14.26 -17.482 -17.076 -21.447 -17.533 M -20.008 -15.168 C -20.938 -15.758 -21.373 -16.435 -21.447 -17.109 C -20.83 -17.033 -20.337 -16.897 -19.945 -16.718 C -19.881 -16.154 -19.91 -15.643 -20.008 -15.168 M -19.673 -14.75 C -19.662 -14.774 -19.655 -14.799 -19.653 -14.825 C -19.521 -15.327 -19.461 -15.868 -19.5 -16.469 C -18.219 -15.59 -18.536 -14.123 -18.915 -13.429 C -19.243 -13.648 -19.578 -13.858 -19.92 -14.059 C -19.823 -14.282 -19.74 -14.513 -19.673 -14.75 M -.371 -22.731 C -.389 -22.741 -.407 -22.749 -.427 -22.752 C -1.715 -23.257 -3.02 -23.638 -4.318 -23.905 C -4.338 -23.913 -4.359 -23.917 -4.382 -23.917 C -5.579 -24.162 -6.77 -24.311 -7.939 -24.376 C -7.958 -24.38 -7.979 -24.382 -8 -24.38 C -11.92 -24.591 -15.581 -23.87 -18.326 -22.637 L -18.42 -22.594 C -18.447 -22.587 -18.471 -22.576 -18.492 -22.562 C -23.164 -20.396 -25.271 -16.559 -20.702 -13.464 C -21.17 -12.682 -21.79 -11.955 -22.396 -11.166 C -22.59 -10.914 -22.786 -10.651 -22.981 -10.376 C -23.343 -11.336 -23.385 -11.955 -22.776 -12.821 C -22.706 -12.92 -22.731 -13.023 -22.795 -13.087 L -26.053 -16.991 C -26.139 -17.094 -26.281 -17.097 -26.37 -16.998 C -42.667 .861 -24.095 27.955 -1.661 20.159 C -1.524 20.111 -1.475 19.976 -1.55 19.852 L -5.068 14.021 C -5.104 13.944 -5.183 13.887 -5.296 13.908 C -6.389 14.112 -7.058 14.049 -7.529 13.596 C -6.516 13.42 -5.471 13.154 -4.396 12.788 C -3.436 13.848 -2.417 14.831 -1.317 15.71 C -1.303 15.725 -1.287 15.737 -1.269 15.747 C -1.212 15.782 -1.153 15.786 -1.102 15.77 C -1.05 15.756 -1.003 15.721 -.974 15.66 C -.964 15.643 -.957 15.623 -.953 15.603 L 1.07 9.665 C 1.091 9.618 1.095 9.565 1.078 9.516 C 1.061 9.465 1.024 9.426 .979 9.402 C .914 9.358 .849 9.315 .783 9.271 C 1.199 8.018 4.099 -.702 4.993 -3.048 C 5.273 -3.784 5.89 -5.122 5.901 -5.901 C 5.912 -6.697 5.361 -7.063 4.229 -7.146 C 3.666 -7.687 3.581 -7.882 3.884 -8.286 C 4.488 -9.084 4.154 -9.445 3.482 -9.983 C 4.134 -10.51 3.987 -11.459 3.665 -11.476 C 3.193 -11.497 3.014 -11.645 2.746 -12.021 C 4.813 -14.053 3.104 -15.787 .352 -16.368 C -.519 -16.553 -1.523 -16.637 -2.606 -16.6 C -2.608 -16.61 -2.61 -16.622 -2.614 -16.633 C -2.985 -17.797 -3.196 -18.921 -3.284 -19.95 C -1.438 -20.465 .743 -21.146 1.316 -21.626 C 1.336 -21.64 1.353 -21.657 1.368 -21.676 C 1.411 -21.728 1.423 -21.785 1.414 -21.837 C 1.408 -21.892 1.379 -21.943 1.323 -21.98 C 1.306 -21.993 1.287 -22.003 1.266 -22.012 C .725 -22.274 .178 -22.515 -.371 -22.731 M -3.33 -21.35 C -2.179 -21.652 -.928 -22.017 -.444 -22.308 C -.035 -22.144 .374 -21.966 .78 -21.777 C .048 -21.383 -1.679 -20.837 -3.314 -20.378 C -3.332 -20.714 -3.337 -21.039 -3.33 -21.35 M -.978 -22.513 C -1.49 -22.301 -2.383 -22.037 -3.312 -21.791 C -3.281 -22.305 -3.217 -22.775 -3.128 -23.193 C -2.41 -23.002 -1.691 -22.777 -.978 -22.513 " fill="#1d1d1b"/>
</g>
</g>
<g id="Page-1" stroke="none" stroke-width="1" fill="none" fill-rule="evenodd" transform="translate(60,6) rotate(30)">
        <path d="M0,2.00494659 C0,0.897645164 0.897026226,0 2.00494659,0 L21.9950534,0 C23.1023548,0 24,0.897026226 24,2.00494659 L24,21.9950534 C24,23.1023548 23.1029738,24 21.9950534,24 L2.00494659,24 C0.897645164,24 0,23.1029738 0,21.9950534 L0,2.00494659 Z M9,24 L12,28 L15,24 L9,24 Z M7.00811294,4 L4,4 L4,20 L7.00811294,20 L7.00811294,15.0028975 C7.00811294,12.004636 8.16824717,12.0097227 9,12 C10,12.0072451 11.0189302,12.0606714 11.0189302,14.003477 L11.0189302,20 L14.0270431,20 L14.0270431,13.1087862 C14.0270433,10 12,9.00309038 10,9.00309064 C8.01081726,9.00309091 8,9.00309086 7.00811294,11.0019317 L7.00811294,4 Z M19,19.9869002 C20.1045695,19.9869002 21,19.0944022 21,17.9934501 C21,16.892498 20.1045695,16 19,16 C17.8954305,16 17,16.892498 17,17.9934501 C17,19.0944022 17.8954305,19.9869002 19,19.9869002 Z" id="Rectangle-2-Copy-17" fill="currentColor"></path>
</g>
</svg>
