<svg version="1.1" viewBox="0.0 0.0 1050.4960629921259 495.29133858267716" fill="none" stroke="none" stroke-linecap="square" stroke-miterlimit="10" xmlns:xlink="http://www.w3.org/1999/xlink" xmlns="http://www.w3.org/2000/svg"><clipPath id="p.0"><path d="m0 0l1050.4961 0l0 495.29135l-1050.4961 0l0 -495.29135z" clip-rule="nonzero"/></clipPath><g clip-path="url(#p.0)"><path fill="#000000" fill-opacity="0.0" d="m0 0l1050.4961 0l0 495.29135l-1050.4961 0z" fill-rule="evenodd"/><path fill="#000000" d="m57.512573 80.80586l0 0c0 -16.201447 13.133873 -29.335323 29.335327 -29.335323l440.0291 0c7.7802124 0 15.24176 3.0906792 20.743225 8.592117c5.501404 5.501446 8.592102 12.962994 8.592102 20.743206l0 278.67212c0 16.201447 -13.13385 29.335327 -29.335327 29.335327l-440.0291 0c-16.201454 0 -29.335327 -13.133881 -29.335327 -29.335327z" fill-rule="evenodd"/><path stroke="#000000" stroke-width="16.0" stroke-linejoin="round" stroke-linecap="butt" d="m57.512573 80.80586l0 0c0 -16.201447 13.133873 -29.335323 29.335327 -29.335323l440.0291 0c7.7802124 0 15.24176 3.0906792 20.743225 8.592117c5.501404 5.501446 8.592102 12.962994 8.592102 20.743206l0 278.67212c0 16.201447 -13.13385 29.335327 -29.335327 29.335327l-440.0291 0c-16.201454 0 -29.335327 -13.133881 -29.335327 -29.335327z" fill-rule="evenodd"/><path fill="#000000" d="m151.91805 388.79324l126.56865 0l-126.56865 94.94653z" fill-rule="evenodd"/><path stroke="#000000" stroke-width="16.0" stroke-linejoin="round" stroke-linecap="butt" d="m151.91805 388.79324l126.56865 0l-126.56865 94.94653z" fill-rule="evenodd"/><path fill="#000000" d="m160.1943 369.44858l126.568665 0l-126.568665 94.94653z" fill-rule="evenodd"/><path fill="#ffffff" d="m18.16193 63.89932l0 0c0 -16.201454 13.133873 -29.335327 29.335327 -29.335327l440.0291 0c7.7802124 0 15.24176 3.0906754 20.743195 8.592117c5.5014343 5.501442 8.592133 12.962997 8.592133 20.74321l0 278.6721c0 16.201477 -13.133881 29.335327 -29.335327 29.335327l-440.0291 0c-16.201454 0 -29.335327 -13.13385 -29.335327 -29.335327z" fill-rule="evenodd"/><path stroke="#000000" stroke-width="16.0" stroke-linejoin="round" stroke-linecap="butt" d="m18.16193 63.89932l0 0c0 -16.201454 13.133873 -29.335327 29.335327 -29.335327l440.0291 0c7.7802124 0 15.24176 3.0906754 20.743195 8.592117c5.5014343 5.501442 8.592133 12.962997 8.592133 20.74321l0 278.6721c0 16.201477 -13.133881 29.335327 -29.335327 29.335327l-440.0291 0c-16.201454 0 -29.335327 -13.13385 -29.335327 -29.335327z" fill-rule="evenodd"/><path fill="#ffffff" d="m112.5674 371.88672l126.568665 0l-126.568665 94.94653z" fill-rule="evenodd"/><path stroke="#000000" stroke-width="16.0" stroke-linejoin="round" stroke-linecap="butt" d="m112.5674 371.88672l126.568665 0l-126.568665 94.94653z" fill-rule="evenodd"/><path fill="#ffffff" d="m119.83719 352.5433l131.81898 0l-131.81898 97.511566z" fill-rule="evenodd"/><path fill="#000000" fill-opacity="0.0" d="m15.338622 -4.6299214l1072.8818 0l0 423.40158l-1072.8818 0z" fill-rule="evenodd"/><path fill="#ffe599" d="m593.66284 4.3700786l448.9928 0l0 400.0l-448.9928 0l0 -400.0z" fill-rule="nonzero"/><path fill="#000000" d="m159.66675 327.6982q-26.328125 0 -48.5 -8.828125q-22.15625 -8.828125 -38.5 -25.0q-16.328125 -16.171875 -25.171875 -38.32814q-8.828125 -22.171875 -8.828125 -48.84375q0 -26.0 9.328125 -47.984375q9.34375 -22.0 25.84375 -38.171867q16.5 -16.171875 39.0 -25.171875q22.5 -9.0 49.171875 -9.0q16.65625 0 32.65625 4.34375q16.0 4.328125 29.828125 12.828125q13.84375 8.5 23.84375 20.171875l-34.671875 39.656242q-7.0 -7.328125 -14.84375 -12.828125q-7.828125 -5.5 -17.15625 -8.5q-9.328125 -3.0 -20.0 -3.0q-13.328125 0 -25.171875 4.84375q-11.828125 4.828125 -20.65625 13.65625q-8.828125 8.828125 -13.828125 21.5q-5.0 12.65625 -5.0 28.328125q0 15.328125 5.0 27.828125q5.0 12.5 14.0 21.500015q9.0 9.0 21.828125 13.671875q12.828125 4.671875 28.5 4.671875q10.671875 0 20.328125 -3.0q9.671875 -3.0 17.828125 -8.171875q8.171875 -5.171875 14.5 -11.82814l27.34375 43.32814q-8.34375 9.328125 -22.171875 16.671875q-13.828125 7.328125 -30.671875 11.5q-16.828125 4.15625 -33.828125 4.15625zm95.673386 -3.328125l92.32814 -233.32812l48.0 0l91.65625 233.32812l-57.328125 0l-44.0 -118.32814q-2.65625 -7.0 -5.328125 -15.0q-2.671875 -8.0 -5.34375 -16.5q-2.65625 -8.5 -5.15625 -16.65625q-2.5 -8.171875 -4.171875 -15.171875l10.0 -0.34375q-2.0 8.34375 -4.5 16.34375q-2.5 7.984375 -5.0 15.828125q-2.5 7.828125 -5.5 15.671875q-3.0 7.828125 -5.65625 16.15625l-44.0 118.000015l-56.000015 0zm44.000015 -44.671875l17.65625 -42.656265l107.328125 0l17.34375 42.656265l-142.32812 0z" fill-rule="nonzero"/><path fill="#010000" fill-opacity="0.0" d="m593.66284 -8.957924l448.9928 0l0 416.66l-448.9928 0l0 -416.66z" fill-rule="nonzero"/><path fill="#000000" d="m622.99097 324.3701l0 -233.32812l105.0 0q22.34375 0 40.5 9.671875q18.171875 9.65625 28.5 26.5q10.328125 16.828117 10.328125 38.156242q0 22.0 -10.328125 39.5q-10.328125 17.5 -28.328125 27.5q-18.0 10.0 -40.671875 10.0l-51.0 0l0 82.000015l-54.0 0zm129.34375 0l-59.34375 -105.32814l58.0 -8.34375l66.0 113.67189l-64.65625 0zm-75.34375 -125.32814l46.0 0q8.671875 0 15.171875 -3.828125q6.5 -3.84375 10.0 -10.84375q3.5 -7.0 3.5 -16.0q0 -9.0 -4.0 -15.828125q-4.0 -6.828125 -11.5 -10.5q-7.5 -3.671875 -18.171875 -3.671875l-41.0 0l0 60.671875zm179.99628 125.32814l0 -233.32812l162.67188 0l0 48.328117l-107.671875 0l0 136.67189l111.0 0l0 48.328125l-166.0 0zm26.671875 -95.67189l0 -46.0l121.0 0l0 46.0l-121.0 0z" fill-rule="nonzero"/><path fill="#010000" fill-opacity="0.0" d="m1042.6556 -8.957924l0 0l0 416.66l0 0l0 -416.66z" fill-rule="nonzero"/></g></svg>